<svg width="120" height="40" viewBox="0 0 120 40" fill="none" xmlns="http://www.w3.org/2000/svg">
  <!-- Background circle -->
  <circle cx="20" cy="20" r="18" fill="#e21b70" opacity="0.1"/>
  
  <!-- Main icon - Food/Restaurant symbol -->
  <path d="M12 8C12 6.9 12.9 6 14 6C15.1 6 16 6.9 16 8V14H18V8C18 6.9 18.9 6 20 6C21.1 6 22 6.9 22 8V14H24V8C24 5.8 22.2 4 20 4C19.5 4 19 4.1 18.5 4.3C18 4.1 17.5 4 17 4H15C14.5 4 14 4.1 13.5 4.3C13 4.1 12.5 4 12 4C9.8 4 8 5.8 8 8V14H10V8C10 6.9 10.9 6 12 6Z" fill="#e21b70"/>
  <rect x="8" y="16" width="16" height="2" rx="1" fill="#e21b70"/>
  <path d="M10 20H22C23.1 20 24 20.9 24 22V30C24 31.1 23.1 32 22 32H10C8.9 32 8 31.1 8 30V22C8 20.9 8.9 20 10 20Z" fill="#e21b70"/>
  
  <!-- Text "ORDIVO" -->
  <text x="45" y="16" font-family="Arial, sans-serif" font-size="14" font-weight="bold" fill="#e21b70">ORDIVO</text>
  <text x="45" y="28" font-family="Arial, sans-serif" font-size="8" fill="#666">Food Delivery</text>
</svg>